<svg xmlns="http://www.w3.org/2000/svg" xmlns:xlink="http://www.w3.org/1999/xlink" xmlns:inkscape="http://www.inkscape.org/namespaces/inkscape" version="1.1" width="1252.33" height="1192.7" viewBox="0 0 1252.33 1192.7">
<defs>
<clipPath id="clip_1">
<path transform="matrix(1,0,0,-1,0,1192.7)" d="M0 1192.696H1252.33V0H0Z"/>
</clipPath>
</defs>
<g inkscape:groupmode="layer" inkscape:label="Layer 1">
<g clip-path="url(#clip_1)">
<path transform="matrix(1,0,0,-1,609.4039,260.27626)" d="M0 0H34.114C34.29-2.129 34.604-4.047 34.586-5.963 33.622-112.147 32.658-218.331 31.621-324.515 31.389-348.28 30.633-372.044 30.672-395.807 30.685-403.752 31.898-411.773 33.491-419.618 35.854-431.258 46.95-440.073 61.694-442.519 62.297-420.765 68.447-400.234 78.888-380.687 79.564-380.696 80.239-380.704 80.914-380.711 81.358-384.876 81.983-389.034 82.212-393.208 83.017-407.849 83.962-422.493 84.257-437.145 84.364-442.414 85.969-444.566 92.379-444.847 110.255-445.632 109.477-445.744 112.62-430.501 115.581-416.136 120.31-402.041 124.449-387.868 125.177-385.376 126.831-383.088 129.924-380.8 130.155-382.997 130.483-385.19 130.603-387.392 131.504-404.031 132.629-420.666 133.093-437.315 133.257-443.206 135.742-444.76 142.252-444.736 159.612-444.672 159.613-444.926 161.423-429.909 163.328-414.101 171.944-389.261 179.847-378.466 180.342-381.924 180.811-384.083 180.938-386.258 181.889-402.675 182.988-419.089 183.566-435.516 183.785-441.72 187.35-443.38 192.691-440.824 199.064-437.775 205.996-434.348 210.254-429.481 219.636-418.757 227.786-407.181 235.845-395.64 240.019-389.664 239.759-383.387 233.649-377.933 228.124-373.001 227.992-368.254 233.568-362.868 247.603-349.309 250.388-331.834 254.758-314.96 255.408-312.452 256.023-309.937 256.654-307.425 257.511-307.085 258.367-306.745 259.223-306.405 265.639-314.18 272.477-321.726 278.303-329.82 281.501-334.264 283.099-339.599 285.238-344.59 290.237-356.258 289.155-367.243 282.441-378.541 271.191-397.473 261.643-417.166 250.409-436.105 239.919-453.793 226.832-469.984 207.169-481.163 187.813-492.167 177-490.798 161.31-475.405 156.857-478.57 152.651-482.104 147.857-484.868 129.857-495.246 118.701-492.535 109.342-475.852 109.03-475.297 108.379-474.886 107.508-474.041 103.187-476.329 99.142-479.223 94.5-480.776 84.34-484.176 74.093-488.517 63.497-489.576 36.477-492.28 12.601-476.899 6.495-451.459 2.201-433.565 .52-414.912 .439-396.589-.117-271.293 .059-145.996 .001-20.699-.002-14.07 0-7.441 0 0" fill="#422511"/>
<path transform="matrix(1,0,0,-1,476.5077,920.6658)" d="M0 0C-11.055-4.372-21.988-4.026-34.087 .773-22.525 15.582-5.896 23.194 10.211 31.511 18.425 19.248 13.819 5.492 0 0M367.266 121.274C363.013 131.431 358.453 141.468 353.217 153.264 346.139 145.16 339.981 137.949 333.624 130.897 330.415 127.351 330.277 124.046 332.212 119.82 334.546 114.728 336.465 109.277 337.079 103.865 339.521 82.217 341.44 60.53 343.436 38.856 344.357 28.899 345.463 18.928 345.709 8.958 345.985-2.493 340.012-7.851 327.007-8.664 321.924-8.984 316.765-9.011 311.667-8.731 295.269-7.824 285.964 .88 286.133 15.062 286.179 18.822 286.87 22.594 286.87 26.353 286.87 27.912 285.826 29.485 285.258 31.045 283.431 30.125 280.82 29.578 279.914 28.206 277.258 24.18 275.001 19.915 273.097 15.569 264.468-4.119 245.719-10.864 222.488-8.571 209.467-7.305 196.002 1.173 198.212 17.182 198.811 21.541 198.735 25.953 198.98 30.338 198.151 30.778 197.322 31.231 196.493 31.671 194.619 29.965 192.285 28.485 190.98 26.5 188.723 23.034 187.188 19.234 185.222 15.622 178.513 3.199 167.641-5.412 152.102-7.864 131.819-11.077 111.981-10.904 98.008 6.385 94.861 4.559 92.235 2.853 89.409 1.426 82.792-1.893 76.343-5.652 69.342-8.185 53.757-13.809 39.769-8.211 34.779 5.838 32.628 11.89 32.122 18.462 31.584 24.847 30.663 35.697 30.617 46.587 29.619 57.424 28.928 64.982 24.982 66.595 18.134 62.05 2.503 51.693-13.373 41.509-28.022 30.152-41.718 19.555-49.933 5.692-52.129-10.383-53.157-17.982-50.102-22.674-42.547-24.367-19.992-29.405-2.81-27.259 11.961-11.21 13.02-10.064 13.665-8.651 14.786-6.931 38.586-42.788 51.008-45.094 90.792-22.207 103.091-35.51 120.672-36.097 138.161-36.43 157.431-36.776 171.741-28.645 182.443-15.116 208.423-44.601 243.524-44.254 274.939-14.49 275.876-15.849 276.797-17.142 277.673-18.461 288.052-34.07 304.651-37.789 323.721-36.283 342.76-34.777 355.689-25.9 361.232-10.104 363.888-2.559 365.685 5.572 365.562 13.41 365.132 41.588 363.704 69.754 362.675 97.933 362.43 104.291 361.017 110.783 366.637 116.328 367.681 117.381 367.865 119.847 367.266 121.274" fill="#422511"/>
<path transform="matrix(1,0,0,-1,406.511,1002.12039)" d="M0 0C12.909-7.417 25.594-15.151 38.769-22.195 84.885-46.847 134.076-63.952 188.669-67.778 248.232-71.953 304.218-62.205 356.159-36.135 424.087-2.04 473.939 45.841 502.183 109.718 525.131 161.619 526.646 214.552 509.676 268.01 507.301 275.49 504.885 282.961 502.427 290.422 502.236 291 501.562 291.459 500.453 292.728 494.193 282.634 488.166 272.915 481.066 261.468 473.423 267.978 466.969 273.146 461.121 278.788 460.169 279.707 461.386 282.967 462.483 284.729 467.831 293.32 473.473 301.774 479.022 310.27 492.366 330.7 501.173 352.668 508.309 375.208 509.019 377.45 510.097 379.605 511.663 383.396 513.333 380.023 514.404 378.344 515.021 376.547 534.88 318.692 547.625 259.899 541.813 199.247 531.783 94.588 477.155 12.509 373.906-43.416 314.034-75.846 248.052-87.516 178.16-79.565 112.395-72.084 54.346-49.678 7.237-8.085 4.49-5.66 1.921-3.084-.732-.578-.488-.385-.244-.193 0 0" fill="#422511"/>
<path transform="matrix(1,0,0,-1,340.4416,625.6307)" d="M0 0C-3.853-14.642-8.25-29.195-11.436-43.946-16.575-67.735-21.36-91.634-16.876-116-16.273-119.278-15.552-122.575-14.421-125.739-7.743-144.43 8.621-150.678 27.008-139.374 42.26-129.997 56.073-118.417 68.739-106.396 94.616-81.836 118.913-55.934 149.163-35.201 160.517-27.418 172.895-20.452 185.748-14.699 203.986-6.538 221.22-10.49 237.478-20.543 254.233-30.903 259.22-44.561 254.453-61.353 252.218-69.23 249.376-76.977 246.416-85.98 239.587-80.103 234.511-74.864 228.464-70.683 205.334-54.689 177.915-54.029 153.058-68.207 127.517-82.775 107.294-102.17 87.602-122.071 72.117-137.72 57.152-153.788 40.992-168.893 29.546-179.592 14.668-184.833-2.614-183.152-15.387-181.909-24.398-175.123-28.234-165.379-32.887-153.563-36.694-141.004-37.448-128.61-40.106-84.914-29.561-43.474-5.252-4.906-4.076-3.041-2.624-1.308-1.3 .487-.867 .325-.433 .162 0 0" fill="#422511"/>
<path transform="matrix(1,0,0,-1,473.3254,837.9968)" d="M0 0C-1.063-.632-1.698-.967-2.278-1.362-5.671-3.67-10.811-8.564-12.141-7.878-19.255-4.21-25.464 .803-31.822 5.518-32.331 5.895-32.024 7.817-31.379 8.535-26.84 13.587-22.273 18.641-17.27 23.336-16.538 24.022-12.93 23.351-11.537 22.367-8.007 19.871-4.979 16.84-1.004 13.373 .423 14.97 1.613 16.371 2.886 17.714 10.858 26.117 10.864 26.113 19.766 18.05 32.169 6.815 32.069 6.228 19.894-5.49 16.735-8.529 14.128-9.321 10.308-6.562 7.023-4.191 3.417-2.155 0 0" fill="#422511"/>
<path transform="matrix(1,0,0,-1,638.7068,970.68399)" d="M0 0C5.372-4.184 10.412-8.109 16.004-12.465 21.232-7.709 25.929-3.436 31.526 1.655 37.549-3.573 43.589-8.511 49.078-13.875 49.993-14.769 49.249-18.086 48.001-19.291 44.28-22.882 39.927-25.979 35.245-29.731 30.798-26.632 26.22-23.847 22.217-20.54 18.013-17.067 14.567-17.247 10.592-20.694 7.018-23.795 3.073-26.573-.49-29.325-1.234-29.157-1.511-29.149-1.718-29.04-22.324-18.25-22.249-16 0 0" fill="#422511"/>
<path transform="matrix(1,0,0,-1,541.2159,888.01876)" d="M0 0C1.606 1.881 2.445 2.989 3.426 3.992 17.075 17.947 21.685 17.892 34.25 3.038 35.567 1.481 35.648-2.282 34.372-3.788 31.397-7.298 27.455-10.293 23.438-12.97 22.264-13.753 18.985-13.378 17.586-12.471 11.706-8.656 6.173-4.439 0 0" fill="#422511"/>
<path transform="matrix(1,0,0,-1,753.649,1010.58328)" d="M0 0C-5.853 4.742-10.842 8.804-15.859 12.841-18.926 15.308-18.77 17.566-15.806 20.13-11.672 23.705-7.81 27.516-2.927 32.072 2.64 26.815 8.265 21.842 13.311 16.46 14.367 15.333 14.181 12 13.027 10.878 8.879 6.843 4.071 3.32 0 0" fill="#422511"/>
<path transform="matrix(1,0,0,-1,696.7033,225.38904)" d="M0 0C0 4.194 .052 8.326-.01 12.458-.207 25.77-.456 39.083-.674 52.386-.684 52.531-.746 52.692-.684 52.8-.321 53.377 .062 53.943 .436 54.52 .902 54.069 1.607 53.692 1.804 53.17 5.226 44.024 8.575 34.852 11.945 25.689 14.764 18.047 17.595 10.396 20.415 2.746 20.716 1.908 20.965 1.053 21.307 0ZM-2.043 41.99C-2.312 28.687-2.675 15.392-2.872 2.088-2.903 .216-3.536-.243-5.599-.198-11.571-.081-17.544-.162-23.982-.162-22.717 3.322-21.566 6.517-20.395 9.713-15.159 23.943-9.923 38.174-4.707 52.414-4.293 53.548-3.94 54.574-2.032 54.006-2.032 50.001-1.97 45.996-2.043 41.99M-27.373-5.715C-24.666-5.518-22.894-5.851-21.608-8.299-20.177-11.008-17.699-13.303-15.667-15.761-15.314-16.193-14.889-16.58-14.402-17.075-19.067-16.994-26.284-10.657-27.373-5.715M-117.392 .621C-117.35 .504-117.402 .36-117.433-.162H-133.286C-138.149-.153-138.108-.144-138.191 4.131-138.491 20.072-138.823 36.022-139.134 51.963-139.144 52.647-139.134 53.322-138.574 54.412-137.921 53.952-136.894 53.601-136.677 53.026-130.196 35.573-123.799 18.101-117.392 .621M-113.431-5.617C-115.649-11.548-120.191-15.041-126.506-17.138-126.256-16.778-126.029-16.409-125.759-16.067-123.406-13.06-120.927-10.108-118.698-7.03-117.36-5.185-115.505-5.887-113.431-5.617M-141.415 .036H-162.463C-155.734 18.317-149.077 36.409-142.41 54.51-142.12 54.601-141.82 54.7-141.529 54.798-141.145 54.213-140.399 53.619-140.409 53.034-140.699 35.437-141.063 17.84-141.415 .036M28.503-.18C26.325-.459 25.683 .585 25.04 2.088 19.254 15.518 13.386 28.921 7.538 42.341 5.744 46.464 3.95 50.595 2.126 54.798 3.567 55.366 4.832 55.78 5.993 56.365 8.575 57.679 10.928 59.191 11.509 62.026 12.141 65.078 9.311 67.31 6.014 66.167 5.008 65.816 4.126 64.934 3.463 64.124 .56 60.586-3.069 58.111-8.253 59.371-10.98 60.037-13.79 61.414-15.822 63.134-24.169 70.199-34.091 71.946-45.217 70.533-46.129 70.416-47.539 70.757-48.079 71.342-51.189 74.7-55.482 75.618-60.054 76.068-62.345 76.302-64.657 76.446-67.312 76.662-67.312 80.047-67.384 83.233-67.271 86.411-67.229 87.671-68.224 89.399-65.725 89.957-65.539 89.993-65.466 90.713-65.477 91.109-65.725 98.616-65.943 106.123-66.306 113.629-66.4 115.547-67.976 116.546-70.122 116.753-72.268 116.96-74.373 115.826-74.705 114.143-75.14 111.928-75.534 109.688-75.607 107.446-75.741 102.666-75.71 97.877-75.607 93.089-75.575 91.766-76.561 89.957-74.02 89.345-73.865 89.309-73.792 88.85-73.792 88.589-73.771 84.655-73.782 80.722-73.782 76.869-77.763 76.428-81.475 76.059-85.166 75.591-85.892 75.501-86.628 75.114-87.251 74.736-88.152 74.178-88.909 73.431-89.822 72.882-90.734 72.341-92.02 72.134-92.684 71.442-93.897 70.172-95.203 70.433-96.748 70.613-107.127 71.783-116.562 70.218-124.484 63.71-126.464 62.081-128.911 60.712-131.409 59.749-134.935 58.381-138.491 58.831-141.415 61.189-142.753 62.26-143.851 63.556-144.972 64.799-146.319 66.293-148.631 66.914-150.529 66.077-152.54 65.204-153.287 63.656-152.478 61.901-151.825 60.487-150.902 58.975-149.606 58.003-147.792 56.643-145.511 55.744-143.365 54.61-143.437 54.367-143.489 54.096-143.603 53.845-150.84 37.192-158.077 20.531-165.366 3.897-166.32 1.71-166.538-1.386-170.965-.144-171.038-.774-171.152-1.116-171.1-1.431-170.883-2.808-170.737-4.194-170.374-5.535-168.321-13.033-162.971-18.29-154.967-21.206-141.737-26.022-128.859-25.572-117.277-17.588-111.046-13.294-108.537-7.255-108.444-.09-111.969-.882-112.923 .828-113.908 3.151-119.216 15.698-124.743 28.182-130.176 40.685-132.083 45.068-133.96 49.47-135.971 54.133-129.305 54.484-124.152 57.364-118.988 60.262-117.93 60.865-116.739 61.316-115.577 61.765-109.978 63.962-104.213 64.394-98.303 62.854-97.65 62.693-96.665 62.405-96.541 62.008-95.753 59.452-93.472 59.515-91.2 59.515-84.171 59.524-77.142 59.551-70.112 59.551-63.154 59.551-56.207 59.524-49.26 59.515-47.456 59.515-45.798 59.668-44.761 61.316-44.346 61.991-43.454 62.666-42.625 62.881-34.714 64.943-27.424 63.341-20.737 59.542-16.009 56.86-11.177 54.556-5.278 54.133-5.485 53.457-5.599 52.926-5.817 52.431-12.909 36.094-20.053 19.775-27.072 3.421-28.005 1.233-28.69-.783-32.09-.27-32.194-.261-32.339-.414-32.619-.594-32.515-7.372-29.903-13.366-23.692-17.687-13.002-25.113-.861-25.896 11.623-22.034 22.23-18.758 28.721-12.142 29.964-2.124 30.089-1.116 30.255 .036 28.503-.18" fill="#422511"/>
<path transform="matrix(1,0,0,-1,577.8435,258.41615)" d="M0 0C7.427 4.956 16.045 8.216 25.517 9.796 28.02 10.213 30.558 10.513 33.096 10.712 34.81 10.846 35.777 11.422 35.837 13.137 34.755 13.198 33.682 13.26 32.327 13.337 32.478 15.605 31.649 17.661 33.947 19.823 36.859 22.563 36.58 26.447 35.611 29.768 33.955 35.444 31.676 40.994 29.399 46.515 28.839 47.874 28.908 48.464 30.119 49.439 36.534 54.601 39.97 61.326 42.461 68.393 44.207 73.344 45.365 78.454 46.684 83.514 46.938 84.487 46.72 85.553 47.192 86.689 47.36 86.259 47.675 85.83 47.676 85.399 47.697 74.997 47.703 64.595 47.63 54.193 47.626 53.657 47.021 53.003 46.492 52.609 44.603 51.204 44.275 49.291 45.808 47.923 47.227 46.657 49.516 46.701 50.917 48.02 52.333 49.354 51.963 51.114 50.222 52.561 49.577 53.097 49.016 54.022 49.009 54.773 48.924 64.828 48.94 74.883 48.95 84.939 48.951 85.514 49.115 86.089 49.227 86.81 49.726 86.572 50.106 86.463 50.098 86.384 49.508 80.804 51.721 75.638 53.41 70.438 55.54 63.879 58.507 57.597 63.501 52.199 64.099 51.552 64.612 50.746 65.391 50.342 68.222 48.871 67.646 47.106 66.828 44.768 64.911 39.285 63.309 33.701 61.995 28.085 61.472 25.85 62.023 23.419 62.152 21.08 62.177 20.62 62.357 19.997 62.73 19.748 65.381 17.982 64.139 15.622 64.36 13.382 63.117 13.284 62.111 13.205 61.094 13.125 61.418 10.682 62.469 9.331 65.557 8.863 76.765 7.164 87.454 3.894 97.93 .09 98.425-.089 98.865-.384 99.474-.7 89.474 1.122 79.677 3.006 69.831 4.678 53.804 7.399 37.678 8.443 21.583 5.314 14.231 3.885 7.059 1.76 0 0" fill="#422511"/>
</g>
</g>
</svg>
